<svg width="1180" height="270" viewBox="0 0 1180 270" fill="none" xmlns="http://www.w3.org/2000/svg">
<path d="M219.614 116.984C219.604 117.062 219.58 117.142 219.534 117.222C219.51 117.161 219.49 117.082 219.499 116.987C219.5 116.98 219.502 116.972 219.503 116.965C219.536 116.971 219.574 116.978 219.614 116.984ZM219.983 117.037L219.953 117.096L219.933 117.034C219.954 117.036 219.972 117.037 219.983 117.037ZM219.475 116.453H219.473C219.471 116.453 219.469 116.452 219.468 116.452H219.471L219.475 116.453ZM38.0579 203.86C38.0521 201.255 38.0662 198.663 38.0823 196.055C38.1078 191.934 40.4018 188.076 44.0745 186.143L44.675 185.826L44.1946 185.346C43.4834 184.636 42.0371 182.981 40.7336 181.239C40.0828 180.37 39.4744 179.488 39.0139 178.7C38.543 177.895 38.2629 177.247 38.2063 176.827C37.952 174.942 38.0618 171.143 38.0598 169.03L38.0579 153.186V153.185C38.0513 143.321 37.2802 133.075 38.2727 123.354C38.301 123.076 38.4953 122.617 38.8655 122.02C39.2233 121.442 39.7064 120.797 40.2346 120.164C41.3018 118.886 42.4959 117.726 43.1438 117.299L43.6467 116.968L43.2288 116.534C39.7732 112.952 38.5262 110.432 38.0999 107.69C37.8837 106.3 37.8755 104.834 37.9211 103.105C37.9665 101.387 38.0654 99.4066 38.051 97.0469C38.0128 91.7357 38.0133 86.4244 38.054 81.1133V81.1084C38.0526 80.0444 38.0142 78.9276 37.9836 77.833C37.953 76.7336 37.9303 75.6536 37.9592 74.6426L37.9622 74.5488L37.9309 74.46C37.3348 72.7924 37.3437 71.4985 37.8293 69.7822L37.8411 69.7432L37.845 69.7031C38.1361 67.1671 37.9273 64.851 37.6643 62.3906C37.6155 61.9341 37.6944 61.2884 37.7883 60.5752C37.8755 59.9132 37.9814 59.1611 37.9192 58.6299C37.094 51.5972 39.3358 46.6701 43.1829 42.9346C47.0592 39.1707 52.5837 36.5995 58.3518 34.3672C66.3055 31.2891 72.8356 29.8327 81.052 28.2617L81.053 28.2607C88.5494 26.8085 96.1231 25.788 103.737 25.2041H103.739C104.622 25.134 105.53 25.1053 106.452 25.0801C107.37 25.055 108.305 25.0332 109.22 24.9775H109.223C122.521 24.0742 135.865 24.0666 149.165 24.9541V24.9531C152.342 25.1742 155.26 25.1462 158.346 25.5742C159.575 25.7448 160.836 25.8338 162.084 25.9121C163.338 25.9908 164.576 26.0577 165.787 26.1826C167.173 26.3254 168.296 26.5231 169.692 26.7578C170.138 26.8329 170.634 26.8734 171.108 26.9111C171.591 26.9496 172.054 26.9852 172.472 27.0488C173.019 27.1322 173.557 27.2585 174.112 27.3926C174.66 27.5251 175.228 27.6665 175.806 27.7676C176.286 27.8516 176.815 27.876 177.305 27.8994C177.81 27.9235 178.279 27.9469 178.698 28.0195H178.699C185.638 29.2081 192.492 30.851 199.216 32.9375L199.219 32.9385C206.884 35.2608 215.779 38.6452 221.113 44.6162C225.357 49.3679 224.852 55.1477 224.998 61.3096C225.211 70.3036 225.199 79.3143 225.058 88.3164V88.3174C225.047 89.1068 225.094 89.9537 225.131 90.7686C225.169 91.5931 225.197 92.3888 225.156 93.1133C225.017 95.5729 225.098 98.0454 225.133 100.477C225.168 102.918 225.158 105.329 224.845 107.716C224.432 110.862 222.107 113.548 219.692 115.661C219.623 115.72 219.558 115.772 219.46 115.852C219.373 115.923 219.269 116.012 219.176 116.111C219.004 116.296 218.752 116.649 218.902 117.101L219.133 117.023C219.148 117.255 219.274 117.433 219.277 117.434C219.278 117.434 219.28 117.434 219.281 117.435H219.281C219.282 117.435 219.284 117.435 219.284 117.436C219.286 117.436 219.293 117.436 219.295 117.437L219.902 117.548C221.003 118.146 222.155 119.278 223.087 120.604C224.058 121.986 224.742 123.507 224.899 124.732V124.733C225.271 127.643 225.091 130.271 225.103 133.056V133.058L225.206 145.977V145.979C225.308 154.651 225.744 163.905 225.315 172.614L225.217 174.349C225.199 174.635 225.074 175.155 224.853 175.826C224.636 176.483 224.342 177.242 224.014 177.986C223.685 178.731 223.325 179.453 222.98 180.037C222.622 180.642 222.316 181.035 222.109 181.189L222.035 181.244L221.987 181.322C221.512 182.069 220.673 183.054 219.939 183.668L219.632 183.906C219.454 184.015 219.316 184.168 219.274 184.208L219.041 184.427L219.143 184.73C219.192 184.876 219.295 184.989 219.342 185.039C219.407 185.109 219.487 185.182 219.569 185.253C219.734 185.396 219.946 185.563 220.156 185.728C220.603 186.076 221.025 186.399 221.207 186.591L221.211 186.596C222.032 187.442 222.949 188.71 223.675 190.076C224.36 191.364 224.85 192.694 224.958 193.809L224.975 194.028C225.45 203.082 225.318 212.168 225.35 221.265L225.376 225.164C225.394 226.949 225.439 228.923 225.365 230.718L225.326 231.475C225.259 232.562 225.069 233.638 224.761 234.683V234.684C223.977 237.354 222.729 239.403 220.968 241.523L220.61 241.948C211.755 252.268 197.052 257.208 183.984 260.405L182.727 260.709C165.429 264.765 147.704 266.699 129.939 266.471H129.938C125.974 266.431 122.251 266.238 118.3 265.995L118.291 265.994H118.282C113.884 265.876 109.507 265.692 105.176 265.062C104.636 264.984 104.007 264.967 103.433 264.943C102.987 264.925 102.572 264.904 102.213 264.857L101.873 264.801L100.906 264.606C96.7094 263.792 92.3953 263.309 88.1819 262.713L86.2444 262.429C85.6647 262.34 85.0373 262.126 84.3586 261.885C83.7034 261.652 82.9952 261.392 82.3167 261.253H82.3176C80.8111 260.903 79.3127 260.599 77.804 260.298C68.1431 257.576 58.6734 254.376 50.2639 248.891C48.9979 248.065 47.8101 246.992 46.5598 246.017L46.554 246.012L46.0969 245.661C43.8594 243.91 42.2682 242.194 40.7981 239.739C37.9621 235.005 38.0594 231.878 38.0637 226.392L38.0657 217.346V217.345L38.0579 203.861V203.86Z" fill="#0E1F3B" stroke="#CBD5E1"/>
<path d="M88.1562 100.411C88.4403 100.494 89.6278 100.779 89.7903 100.844C91.6797 101.596 93.7407 103.144 95.4704 104.221L105.042 110.066L150.029 137.581L160.587 144.093C161.672 144.773 162.781 145.432 163.847 146.14C164.318 146.454 164.761 146.844 165.253 147.122C165.585 147.31 165.97 147.363 166.3 147.54C166.923 147.874 167.474 148.4 168.084 148.769C170.673 150.337 186.868 159.886 187.388 161.155C187.455 161.322 187.282 161.488 187.2 161.631C185.878 161.712 184.555 161.76 183.232 161.778C181.53 161.786 163.923 161.519 163.954 161.543C164.699 161.404 165.398 161.564 166.069 161.512C167.764 161.381 171.813 161.685 173.292 161.47C165.54 161.318 157.361 161.442 149.566 161.444L139.616 161.447C137.854 161.448 135.691 161.396 133.951 161.483C135.808 161.488 137.664 161.512 139.52 161.557C137.309 161.639 134.028 161.685 131.832 161.551L133.225 161.476C131.947 161.455 128.954 161.345 127.777 161.535L128.313 161.539C126.006 161.765 121.889 161.931 119.576 161.774C119.288 162.144 119.36 161.937 119.371 162.421C120.005 163.4 124.875 168.037 125.926 169.061L139.827 182.627L175.807 217.95L182.137 224.182C183.266 225.275 187.188 228.981 187.874 230.17C187.454 230.93 181.502 230.539 180.461 230.406L120.153 230.413L100.159 230.411C98.3327 230.411 89.4012 230.614 88.4501 230.133L88.3414 229.75C88.1414 228.801 88.2361 222.479 88.239 221.065L88.2394 201.392L88.2358 133.914L88.2439 112.363C88.245 108.781 88.3938 103.864 88.1562 100.411Z" fill="#B5242C"/>
<path d="M37.3487 69.6465C37.9814 70.4541 37.7272 73.6364 37.4599 74.6284C36.8245 72.851 36.8384 71.4499 37.3487 69.6465Z" fill="#05326E"/>
<path d="M219.922 184.313L219.865 184.109C220.105 183.377 221.652 181.71 222.408 181.59C221.841 182.481 220.783 183.701 219.922 184.313Z" fill="#05326E"/>
<path d="M111.815 178.245C112.243 177.362 112.454 176.61 113.301 176.179C114.418 176.228 114.907 178.89 115.264 179.864C115.699 180.826 116.117 182.313 116.941 182.723C117.608 182.777 117.879 182.467 118.404 182.049C118.872 181.589 119.266 181.291 119.778 180.89C120.572 180.232 121.383 179.595 122.21 178.977C122.571 178.718 122.784 178.49 123.215 178.494C123.427 178.67 123.441 178.627 123.449 179.041C123.495 181.498 123.138 184.056 123.133 186.514C125.213 186.239 127.299 186.016 129.39 185.848C130.144 185.783 130.568 185.779 131.324 185.8C130.812 186.486 129.774 187.964 129.239 188.539L129.17 188.639C128.639 189.401 126.516 191.786 126.427 192.394C126.604 192.505 126.525 192.499 126.642 192.491C127.527 192.868 128.309 193.208 129.167 193.636C130.223 194.206 133.912 194.845 133.462 196.112C132.716 196.845 130.937 197.391 129.892 197.792C128.514 198.412 127.572 198.593 126.218 199.062C126.831 200 127.828 201.556 128.597 202.318C129.194 202.957 131.056 204.971 131.164 205.763C129.65 206.596 124.745 205.255 122.956 205.073C123.246 207.834 123.545 210.583 123.355 213.361C121.847 212.473 118.328 209.727 116.855 208.507C116.185 209.673 115.718 210.814 115.184 212.045C114.863 213.036 114.416 214.679 113.795 215.441C113.439 215.715 113.362 215.723 112.992 215.58C112.109 214.642 110.948 211.428 110.382 210.069L109.677 208.479C108.937 209.222 103.862 213.145 103.172 213.358L102.993 213.254C102.369 211.662 103.789 207.002 103.952 205.108C101.97 205.113 100.395 205.824 98.3354 205.894C97.763 206.021 95.7733 206.206 95.4591 205.71C95.8048 204.754 98.0172 202.167 98.7887 201.21C99.4049 200.408 99.7786 199.876 100.27 199.004C99.2147 198.74 98.5202 198.567 97.5151 198.177C96.1695 197.542 94.6342 196.946 93.2437 196.375C92.8817 195.941 92.942 196.173 92.9583 195.689C93.6815 194.398 95.74 194.527 96.9833 193.832C97.8926 193.274 99.2818 192.68 100.278 192.282C99.6572 191.507 98.9674 190.725 98.3286 189.95C96.9975 188.292 96.229 187.648 95.349 185.723C96.1075 185.75 96.7441 185.75 97.4907 185.899C99.6389 186.022 101.755 186.34 103.934 186.478C103.738 183.978 102.538 181.642 102.975 178.527C103.287 178.436 103.423 178.391 103.773 178.603C105.743 179.795 107.549 181.382 109.314 182.801C109.817 182.886 109.562 182.901 110.094 182.648C110.376 181.567 111.343 179.379 111.815 178.245Z" fill="#FEFEFE"/>
<path d="M129.167 193.635C130.223 194.205 133.912 194.845 133.462 196.111C132.716 196.844 130.937 197.39 129.892 197.791C130.238 197.421 131.074 196.921 131.533 196.642C131.278 196.46 131.404 196.539 130.93 196.614L131 196.634C131.474 196.401 132.303 196.137 132.575 195.84C132.409 195.064 130.121 195.055 129.16 194.346L129.167 193.635Z" fill="#F2D4D7"/>
<path d="M102.975 178.526C103.287 178.435 103.423 178.39 103.773 178.602C105.743 179.794 107.549 181.381 109.314 182.801C107.412 182.66 107.058 181.677 105.595 180.792C104.691 180.244 103.602 178.925 102.975 178.526Z" fill="#F2D4D7"/>
<path d="M110.382 210.068C112.196 210.518 112.192 213.666 113.398 214.843C113.492 214.981 113.728 215.309 113.795 215.44C113.439 215.714 113.362 215.722 112.992 215.579C112.109 214.641 110.948 211.427 110.382 210.068Z" fill="#F2D4D7"/>
<path d="M98.3354 205.894C97.763 206.021 95.7733 206.206 95.4591 205.71C95.8048 204.754 98.0172 202.167 98.7887 201.21C98.8248 203.447 96.2354 204.664 96.2259 205.835C97.0489 206.005 97.5429 205.792 98.3354 205.894Z" fill="#F2D4D7"/>
<path d="M93.2437 196.374C92.8817 195.941 92.942 196.172 92.9583 195.689C93.6815 194.398 95.74 194.526 96.9833 193.831L97.3858 194.343C96.5874 194.972 95.7825 195.072 94.7791 195.149C94.4914 195.36 94.048 195.663 93.8162 195.908L93.2437 196.374Z" fill="#F2D4D7"/>
<path d="M111.815 178.245C112.243 177.362 112.454 176.61 113.301 176.179C114.418 176.228 114.907 178.89 115.264 179.864C113.846 179.396 114.329 177.76 113.633 177.009L113.363 177.001C113.011 177.218 112.948 177.484 112.775 177.868L111.815 178.245Z" fill="#F5E5EA"/>
<path d="M95.349 185.723C96.1075 185.749 96.7441 185.749 97.4907 185.898C96.9133 185.909 96.8039 185.809 96.4185 186.076C96.4236 187.299 98.7324 188.36 98.3286 189.949C96.9975 188.291 96.229 187.647 95.349 185.723Z" fill="#F2D4D7"/>
<path d="M111.815 178.244L112.775 177.867C112.038 179.583 111.522 181.34 110.094 182.647C110.376 181.567 111.343 179.378 111.815 178.244Z" fill="#F2D4D7"/>
<path d="M93.2437 196.374L93.8162 195.908C95.7722 196.629 96.1001 196.56 97.5151 198.176C96.1695 197.542 94.6342 196.946 93.2437 196.374Z" fill="#F2D4D7"/>
<path d="M100.278 192.281L100.398 192.439C99.9213 193.312 98.2905 194.044 97.3858 194.343L96.9833 193.831C97.8926 193.273 99.2818 192.68 100.278 192.281Z" fill="#F2D4D7"/>
<path d="M128.597 202.317C129.194 202.957 131.056 204.971 131.164 205.762C130.901 205.586 130.509 205.529 130.3 205.375C129.265 204.605 128.92 203.503 128.597 202.317Z" fill="#F9C6D3"/>
<path d="M113.398 214.843C114.297 213.781 113.531 212.665 115.184 212.045C114.863 213.035 114.416 214.679 113.795 215.44C113.728 215.31 113.492 214.981 113.398 214.843Z" fill="#F5E5EA"/>
<path d="M129.39 185.848C130.144 185.782 130.568 185.779 131.324 185.799C130.812 186.486 129.774 187.963 129.239 188.538C129.293 187.611 129.684 187.847 129.867 187.146C129.588 187.352 129.487 187.565 129.281 187.859L129.179 187.855C129.379 187.011 129.875 186.97 129.983 186.259C129.767 185.86 129.928 186.026 129.39 185.848Z" fill="#F5E5EA"/>
<path d="M126.642 192.491C127.527 192.868 128.308 193.208 129.167 193.636L129.16 194.346C127.846 193.788 127.288 193.702 126.642 192.491Z" fill="#F2D4D7"/>
<path d="M122.21 178.977C122.295 180.07 121.893 180.151 121.028 180.783C120.473 180.715 120.34 180.772 119.778 180.89C120.572 180.231 121.383 179.594 122.21 178.977Z" fill="#F2D4D7"/>
<path d="M119.778 180.89C120.34 180.772 120.473 180.715 121.028 180.783C120.483 181.187 119.499 181.992 118.914 182.202C118.751 182.154 118.563 182.102 118.404 182.048C118.872 181.588 119.266 181.29 119.778 180.89Z" fill="#F5E5EA"/>
<path d="M110.821 135.546C111.155 135.942 111.539 136.374 111.865 136.768C114.061 139.422 114.304 136.49 115.454 135.821C116.168 136.071 116.657 138.679 116.687 139.451C117.369 138.954 118.938 137.641 119.693 137.657C120.359 138.238 119.927 140.207 119.868 141.072C120.522 141.02 122.799 140.68 123.146 140.714L123.307 140.893C123.181 141.906 122.236 143.086 121.997 144.032C122.264 144.333 124.435 144.725 125.498 145.366L125.362 145.468C124.435 146.143 122.599 146.717 123.214 148.099C124.14 148.86 124.82 148.414 125.677 147.861C126.188 147.477 126.673 147.042 127.158 146.623C130.012 144.061 130.785 142.75 132.616 139.509C132.934 141.62 132.751 142.646 131.947 144.627C130 150.998 124.071 155.929 117.553 157.502C115.078 158.099 110.824 157.875 108.33 157.308C106.027 156.63 103.707 155.41 101.709 154.17C98.2775 152.178 94.1849 146.427 93.802 142.471C93.7408 141.44 93.7507 140.84 93.8083 139.805L94.9889 141.597C96.4961 143.521 97.4353 144.734 99.2666 146.401C99.6885 146.803 100.218 147.3 100.67 147.663C101.385 148.078 101.854 148.361 102.7 148.488C103.218 148.158 103.543 148.037 103.632 147.408C103.502 146.928 103.324 146.851 102.919 146.51C102.311 146.22 101.411 145.893 101.451 145.137C101.708 144.799 101.995 144.784 102.417 144.671L104.585 144.139L104.536 143.971C104.237 142.988 103.018 141.078 103.112 140.768C104.277 140.69 105.297 141.054 106.846 140.947C106.673 139.988 106.312 138.683 106.693 137.822C107.486 137.238 108.918 138.726 109.496 139.291L109.717 139.504C109.996 138.252 110.367 136.75 110.821 135.546Z" fill="#FEFEFE"/>
<path d="M93.802 142.471C93.9587 142.772 93.9399 142.79 94.2019 142.992L94.3803 142.853C95.3562 145.077 96.3262 147.474 97.7194 149.459C98.7805 150.971 100.286 152.224 101.59 153.519C101.703 153.631 101.703 154.018 101.709 154.169C98.2775 152.177 94.1849 146.426 93.802 142.471Z" fill="#F2D4D7"/>
<path d="M94.9888 141.597C96.4961 143.52 97.4353 144.733 99.2666 146.401C99.6885 146.803 100.218 147.299 100.67 147.663L100.065 148.068C99.5634 147.76 97.9365 146.211 97.4817 145.736C96.4364 144.765 95.6593 143.824 94.9803 142.576C95.0284 142.193 95.0027 141.979 94.9888 141.597Z" fill="#F2D4D7"/>
<path d="M132.616 139.51C132.934 141.62 132.751 142.647 131.947 144.628C131.909 143.326 132.813 141.836 132.594 140.358C132.594 140.283 132.593 140.208 132.593 140.133C132.203 140.746 130.694 142.932 130.824 143.522C131.009 143.412 131.195 143.304 131.383 143.2C131.44 143.539 131.373 143.5 131.593 143.74L131.488 143.847C131.095 143.829 131.015 143.801 130.641 143.712C130.187 143.908 129.69 145.084 129.356 145.491C129.127 145.768 128.743 146.112 128.468 146.341C128.034 146.431 127.587 146.516 127.158 146.623C130.012 144.061 130.785 142.751 132.616 139.51Z" fill="#F2D4D7"/>
<path d="M93.8083 139.805L94.9889 141.597C95.0028 141.98 95.0285 142.193 94.9804 142.576C94.7352 142.426 94.5116 142.264 94.2882 142.085L94.1178 142.131C94.1384 142.447 94.1623 142.684 94.2019 142.992C93.94 142.79 93.9587 142.772 93.802 142.471C93.7408 141.44 93.7507 140.84 93.8083 139.805Z" fill="#F9C6D3"/>
<path d="M127.158 146.623C127.587 146.515 128.034 146.43 128.468 146.341C127.58 147.239 127.012 148.19 125.677 147.861C126.188 147.477 126.673 147.042 127.158 146.623Z" fill="#F2D4D7"/>
<path d="M102.919 146.51C102.311 146.22 101.411 145.893 101.451 145.137C101.708 144.799 101.995 144.784 102.417 144.671C102.072 145.618 102.693 145.556 102.919 146.51Z" fill="#F5E5EA"/>
<path d="M100.065 148.069L100.67 147.663C101.385 148.078 101.854 148.361 102.7 148.488C101.16 148.633 101.736 149.125 100.065 148.069Z" fill="#F2D4D7"/>
<path d="M48.1686 107.738C48.3213 104.314 48.2245 100.56 48.2256 97.0915L48.2187 77.9088L48.2188 71.0905C48.2194 69.5707 48.1665 67.8246 48.36 66.3381L48.513 66.2322C49.3766 66.4464 50.6688 67.8977 51.5249 68.4599C52.6103 69.1729 53.4827 69.6215 54.6345 70.2024C59.2987 72.5465 64.3662 73.9774 69.3395 75.5325C72.5754 76.5442 76.2029 77.1818 79.5143 77.9313C81.4672 78.3733 83.3755 78.8489 85.3163 79.324C86.1552 79.5295 87.6879 79.2536 88.5912 79.4488C89.6319 79.5906 91.2516 80.0874 92.1708 80.1693C95.3765 80.4548 98.3429 81.1326 101.557 81.3481C102.757 81.4285 104.28 81.8123 105.548 81.9031C107.755 82.0612 109.959 82.0117 112.168 82.1162C114.312 82.2004 116.561 82.8069 118.694 82.8487C127.902 83.0294 137.134 82.9813 146.342 82.833C147.851 82.8087 149.58 82.1943 151.135 82.1317C153.254 82.0465 155.372 82.0261 157.489 81.9118C158.819 81.8245 160.38 81.4388 161.735 81.3084C162.812 81.1005 164.457 81.2727 165.467 81.0178C167.576 80.4853 169.747 80.4925 171.815 80.1616C178.57 79.1335 185.255 77.6917 191.833 75.8443C193.814 75.2955 195.776 74.8346 197.726 74.1449C202.871 72.3242 208.028 69.9732 212.58 66.9553C212.957 66.7055 213.221 65.8138 213.865 65.4658C214.05 65.5232 214.335 65.622 214.354 65.8356C214.545 68.2161 214.266 70.6758 214.277 73.0875C214.32 82.4162 214.34 91.7489 214.308 101.077C214.304 102.218 214.185 104.096 213.846 105.153C213.781 105.733 213.784 106.125 213.523 106.647C213.158 106.932 213.365 106.846 212.863 106.867C212.46 106.68 212.472 106.686 212.139 106.392C210.72 107.579 208.492 109.981 207.264 110.879C201.774 114.804 195.471 117.902 189.088 120.1C185.627 121.291 181.632 122.233 178.071 123.193C176.963 123.382 175.638 123.919 174.558 124.065C171.332 124.502 168.027 125.296 164.845 125.847C162.699 126.218 160.635 126.19 158.439 126.744C157.209 127.055 154.932 126.679 153.616 126.995C150.327 127.466 146.276 128.468 143.067 127.112C138.476 124.347 133.649 121.31 129.064 118.493L101.644 101.699L91.6763 95.5881C88.6512 93.7049 85.7011 91.7749 82.5951 90.0189L82.5892 122.906C81.5616 122.562 79.2021 122.03 77.985 121.692C74.9406 120.842 71.929 119.878 68.9567 118.802C66.138 117.753 62.8759 116.257 60.1567 114.934C58.7318 114.241 57.0037 112.975 55.7107 112.35C52.4002 110.749 50.5952 110.68 48.1686 107.738Z" fill="#B5242C"/>
<path d="M212.139 106.392C212.488 105.969 213.211 105.776 213.845 105.153C213.781 105.733 213.784 106.125 213.523 106.647C213.158 106.932 213.365 106.846 212.863 106.867C212.46 106.68 212.472 106.686 212.139 106.392Z" fill="#5B286C"/>
<path d="M48.234 229.419L48.2375 209.17C48.2376 207.779 48.1042 199.141 48.4175 198.591C49.6608 197.883 52.4791 201.174 53.8103 201.935C61.5687 206.363 70.5141 208.588 79.1491 210.64C80.4864 210.959 81.1986 210.879 82.5782 211.439L82.5898 235.969L163.158 235.954L187.578 235.955C191.638 235.955 196.245 236.059 200.26 235.937C200.256 235.692 200.266 235.492 200.098 235.282C197.631 232.209 178.903 215.233 178.627 213.411L177.677 212.874L177.833 212.739C182.898 211.76 187.919 210.575 192.885 209.185C194.879 208.629 197.21 208.061 199.144 207.429C205.27 205.403 211.049 202.454 216.286 198.685C216.235 200.876 216.059 203.037 216.022 205.236C215.953 209.314 216.137 213.414 216.055 217.492C215.979 221.281 216.246 225.201 215.776 228.952C215.676 229.746 214.139 231.535 213.537 232.128C212.669 232.986 211.556 233.822 210.66 234.663C209.365 235.876 208.18 237.133 206.64 238.047C201.35 241.554 195.681 244.146 189.718 246.281C188.366 246.765 186.688 247.077 185.284 247.541C182.06 248.606 178.733 249.326 175.45 250.183C174.844 250.342 173.864 250.279 173.232 250.415C172.467 250.579 171.642 250.854 170.873 250.986C169.259 251.307 167.555 251.496 165.954 251.875C165.025 252.094 163.363 251.98 162.572 252.204C159.879 252.965 157.76 252.973 154.976 253.041C153.388 253.079 151.364 253.784 149.718 253.774C142.343 253.82 134.947 253.929 127.572 253.862C123.483 253.854 119.4 253.825 115.31 253.786C113.043 253.764 110.426 253.094 108.256 253.085C105.253 253.073 103.233 252.606 100.369 252.213L94.5673 251.369C93.8214 251.259 92.7405 251.188 92.0342 251.03C79.6146 248.223 66.6405 245.097 55.9346 237.911C54.5025 236.949 53.4676 235.612 52.2144 234.551C50.2025 232.848 49.5698 231.479 48.234 229.419Z" fill="#B5242C"/>
<path d="M178.627 213.411C179.565 213.977 183.694 218.244 184.804 219.33L201.409 235.579L201.447 235.78C201.07 235.981 200.698 235.932 200.26 235.937C200.256 235.692 200.266 235.493 200.098 235.282C197.631 232.21 178.903 215.234 178.627 213.411Z" fill="#05326E"/>
<path d="M174.554 146.498C174.173 146.394 173.866 146.37 173.64 146.068C173.898 145.629 176.052 145.496 176.696 145.368C178.966 144.902 181.228 144.407 183.485 143.884C193.448 141.503 202.864 138.103 211.975 133.365C212.88 132.894 213.781 132.201 214.664 131.652C214.336 136.772 214.457 141.904 214.461 147.055C214.476 151.97 214.518 156.992 214.515 161.89C214.514 163.724 215.265 171.93 214.832 172.803C210.718 181.104 198.865 185.78 190.62 188.979C189.101 189.568 188.366 189.503 186.892 190.008C183.467 191.095 179.985 191.941 176.497 192.792C175.617 193.007 174.474 193.061 173.541 193.274C171.239 193.801 168.969 194.053 166.659 194.611C166.026 194.765 164.417 194.793 163.649 194.901C162.613 195.045 161.772 195.278 160.785 195.46C161.463 196.71 164.09 198.962 165.205 200.042L170.889 205.587C171.989 206.655 173.056 207.81 174.163 208.887C175.197 209.893 177.194 211.496 177.833 212.739L177.677 212.875C177.023 212.781 175.938 211.517 175.422 211.015L170.23 205.915L148.845 184.627C146.858 182.674 144.981 181.022 143.019 178.967C140.16 176.193 137.1 173.501 134.432 170.551C133.447 169.462 132.007 168.806 131.691 167.377L131.461 167.154L131.486 166.855C131.855 166.548 131.951 166.452 132.461 166.463C134.385 166.5 136.268 166.584 138.196 166.586L154.281 166.603L205.869 166.463L205.828 166.327C206.026 166.223 205.94 166.295 206.082 166.111C204.839 165.516 203.391 164.885 202.214 164.225C199.937 162.946 197.747 161.417 195.528 160.044C191.657 157.701 187.813 155.316 183.995 152.891L177.548 148.949C176.731 148.439 175.872 147.921 175.076 147.379C174.729 147.142 174.723 146.918 174.554 146.498Z" fill="#B5242C"/>
<path d="M174.554 146.498C181.849 150.848 189.087 155.293 196.264 159.834C197.463 160.576 206.961 166.274 207.117 166.626C206.817 166.856 206.489 166.82 206.066 166.822C190.587 166.917 175.086 166.87 159.605 166.871L140.999 166.872C138.225 166.872 134.194 166.998 131.486 166.855C131.855 166.548 131.951 166.452 132.461 166.463C134.385 166.5 136.268 166.584 138.196 166.586L154.281 166.603L205.869 166.463L205.828 166.327C206.026 166.223 205.94 166.294 206.082 166.11C204.839 165.516 203.391 164.885 202.214 164.225C199.937 162.946 197.747 161.417 195.528 160.044C191.657 157.7 187.813 155.316 183.995 152.891L177.548 148.949C176.731 148.439 175.872 147.921 175.076 147.378C174.729 147.142 174.722 146.918 174.554 146.498Z" fill="#05326E"/>
<path d="M131.691 167.377C132.925 168.151 135.488 170.994 136.744 172.204L152.143 187.238L156.48 191.523C157.456 192.495 159.672 194.819 160.785 195.46C161.463 196.709 164.091 198.962 165.205 200.042L170.889 205.587C171.989 206.655 173.056 207.81 174.163 208.887C175.197 209.893 177.194 211.496 177.833 212.739L177.677 212.874C177.023 212.781 175.938 211.517 175.422 211.014L170.23 205.915L148.845 184.627C146.858 182.674 144.981 181.022 143.019 178.967C140.16 176.193 137.1 173.501 134.432 170.551C133.447 169.462 132.007 168.806 131.691 167.377Z" fill="#05326E"/>
<path d="M48.3884 132.206C49.2648 132.521 50.4576 133.27 51.2994 133.733C58.4243 137.653 66.1382 140.283 74.0303 142.158C77.0666 142.88 79.453 143.854 82.5898 143.814L82.5699 191.345C81.8577 191.155 81.0387 190.759 80.1753 190.528C72.1078 188.364 63.41 185.252 56.5556 180.379C55.4941 179.625 54.1443 178.255 53.184 177.328C52.3389 176.511 51.0534 175.308 50.4082 174.366C49.9219 173.656 49.763 171.804 49.5175 170.889C49.0855 169.278 48.3826 167.491 48.2906 165.832C48.1734 163.719 48.2166 161.441 48.2173 159.309L48.2181 147.474L48.2067 137.92C48.2051 136.49 48.1173 133.442 48.3884 132.206Z" fill="#B5242C"/>
<path d="M878.579 0.0224345C891.671 -0.436003 900.261 6.14548 910.966 13.321C897.288 14.5766 884.093 18.5232 895.179 35.5431C899.175 41.6785 906.901 48.0395 912.308 53.2912L939.112 79.3961L1072.54 79.3999C1065.33 75.3268 1057.8 71.6297 1052.02 65.6462C1023.63 37.2312 1056.78 1.98637 1089.62 17.1633C1106.38 25.7706 1128.18 39.2259 1137.58 56.0817C1148.18 75.0797 1133.76 79.4016 1159.89 79.2217C1163.24 81.6309 1177.8 90.2752 1179.5 92.7402L1179.2 93.7902C1174.32 96.5638 1156.54 93.8631 1150.27 95.6903C1147.7 98.5414 1148.66 103.37 1148.66 107.165L1148.66 127.392L1148.69 214.217C1148.69 222.53 1149.21 249.722 1147.83 256.79L1147.19 257.123C1142.69 255.88 1127.38 244.894 1122.46 241.538C1122 230.877 1122.5 216.036 1122.51 205.096L1122.5 134.594C1122.51 126.863 1123.17 101.996 1121.55 96.635C1119.89 95.0537 1097.94 95.1562 1095.56 95.938C1088.98 98.1018 1094.56 115.23 1091.67 121.487C1087.75 124.921 1042.39 120.948 1034.34 123.585C1026.59 125.033 1019 129.832 1021.26 138.87C1022.13 142.832 1022.95 143.693 1027.05 142.841C1042.85 139.551 1053.99 142.654 1067.46 151.088C1086.52 163.027 1112 180.861 1095.82 206.316C1092.23 204.276 1088.77 201.524 1085.16 199.344C1083.94 198.491 1071.28 191.858 1071.65 190.574C1074.23 182.03 1077.1 176.595 1075.68 167.275C1073.93 155.929 1063.15 157.022 1054.29 158.768C1034.85 162.605 1016.57 183.564 1020.69 204.33C1024.94 225.799 1051.45 222.069 1067.23 218.476C1070.2 220.022 1087.74 230.577 1088.67 232.654L1087.9 233.528C1080.05 236.495 1064.56 237.42 1056.45 234.745C1019.08 222.421 962.346 180.888 1017.55 146.583C1008.56 138.606 994.154 130.987 998.884 116.253C1005.05 97.0524 1058.76 111.809 1065.99 104.408C1066.92 102.01 1066.54 98.5932 1066.43 95.9363C1061.2 95.4665 1050.09 95.749 1044.52 95.7547L1003.32 95.8218L968.202 95.8913C962.534 95.9044 952.961 95.6419 947.736 96.4294C942.642 100.175 947.162 123.001 945.388 129.722C944.211 134.174 932.921 132.41 929.016 132.477C916.816 132.558 905.588 131.911 893.331 132.994C869.159 135.019 857.152 162.406 868.875 182.8C874.656 192.855 896.481 195.512 906.509 191.33C907.777 190.803 906.242 179.426 907.231 175.986C909.101 169.477 910.898 166.226 918.692 168.099C928.453 171.474 944.41 181.755 950.652 189.901C956.792 197.909 935.684 205.966 934.263 211.32C934.803 219.57 954.484 240.961 959.51 249.517C955.286 247.563 951.659 243.989 948.003 242.171C931.42 233.93 927.742 223.548 916.429 209.601C897.174 208.578 875.367 193.758 859.563 183.566C842.189 172.363 828.057 150.022 842.314 130.406C856.311 111.15 881.114 116.137 901.643 115.591C904.769 115.508 915.298 116.646 917.97 113.813C919.613 110.741 919.59 101.033 918.732 97.4424C915.503 95.064 897.782 95.8828 893.229 95.8925L853.395 95.9898L789.649 96.1151C784.743 96.1151 751.145 95.3663 748.99 97.164C746.341 100.916 747.342 110.348 747.427 115.267C748.774 114.93 750.139 114.647 751.509 114.421C770.497 111.446 784.749 123.857 799.439 133.331C828.989 152.38 822.997 185.245 805.021 209.682C801.849 213.824 789.45 229.484 783.742 224.663C776.921 218.907 767.825 213.872 760.986 208.461C764.869 204.896 768.876 201.922 772.691 198.082C789.155 181.512 798.017 160.9 791.059 137.693C788.035 130.922 785.414 129.465 778.109 130.5C764.152 132.127 751.264 147.221 748.234 160.389C746.682 167.15 747.188 179.544 747.166 187.037L747.217 227.226C747.262 231.255 748.223 238.21 746.08 240.982C743.425 241.309 723.772 227.227 720.361 224.921L720.537 183.429C716.888 184.037 713.596 184.66 709.776 184.82C694.114 185.478 671.732 169.623 660.163 159.577C647.656 148.719 648.06 135.289 648.134 120.396C648.196 112.498 648.179 104.599 648.077 96.7022C644.626 96.4795 624.462 95.5907 623.637 97.7556C621.773 102.683 622.517 121.135 622.517 126.763L622.574 198.872C622.574 205.093 623.416 236.871 621.25 240.975C617.816 241.363 599.178 227.464 595.388 224.828C596.792 184.644 594.335 143.403 595.608 103.105C595.663 101.38 595.206 99.1803 594.524 97.5933C591.989 95.6021 567.167 95.7228 566.906 98.3768C566.05 107.07 566.383 117.317 566.396 126.121L566.338 202.876L566.336 226.222C566.358 230.279 567.47 238.062 564.931 241.001C561.889 241.017 543.372 227.712 539.215 224.93C539.213 216.532 539.254 208.133 539.339 199.736C516.402 207.09 498.274 192.054 480.837 179.165C452.289 158.063 467.445 112.601 501.126 109.277C516.46 107.762 528.765 119.178 539.319 128.475C539.402 119.529 539.725 105.121 539.079 96.5718C528.806 95.5628 517.764 96.2751 507.41 96.2631C489.697 96.2426 471.94 95.9756 454.23 96.2819C452.552 96.311 446.837 96.1755 445.993 97.4863C441.335 104.712 447.734 236.263 443.033 241.149C439.565 240.826 421.904 228.031 417.523 225.099C418.993 198.372 417.254 169.736 417.625 142.878C417.688 138.277 384.02 139.272 381.433 142.99C381.321 144.382 381.794 146.672 382.646 147.887C395.396 166.08 406.744 199.652 379.821 211.337C363.447 217.103 350.177 205.304 337.607 198.014C312.312 183.343 302.224 159.707 293.46 133.054C292.335 129.632 288.257 120.1 289.774 116.968C293.336 117.121 311.161 131.721 316.179 135.006C316.683 145.329 329.107 181.96 336.42 190.837C339.128 194.313 341.729 196.317 346.237 196.698C360.708 197.921 369.715 186.723 371.129 173.21C372.967 155.637 365.951 140.878 354.77 127.904C353.666 126.623 353.65 126.06 353.828 124.544C357.536 121.053 408.206 125.787 415.856 122.608C416.712 121.911 417.653 120.915 417.645 119.81C417.613 115.558 418.88 100.04 416.602 97.0518C411.154 95.6892 381.612 96.1174 373.693 96.1043L288.628 95.9243C284.549 93.2834 270.682 85.2535 269.5 81.9873C270.879 80.8616 272.085 80.6446 273.968 80.6355C293.312 80.5427 312.778 80.5336 332.109 80.451L468.075 80.3218L853.395 79.4005C867.834 79.3783 928.152 80.1039 930.573 78.6724C930.613 78.3535 930.653 77.9777 930.704 77.5443C912.274 58.3932 891.182 41.3198 872.871 22.0809C864.486 13.2738 865.913 3.2061 878.579 0.0224345ZM708.605 160.068C724.437 143.995 720.048 135.929 720.594 115.277C720.708 111.14 721.049 100.091 719.11 96.902C715.438 95.5685 684.205 96.3104 677.895 96.2239C674.546 99.5566 675.342 99.4433 675.325 105.024L675.302 138.117C675.302 149.186 672.028 170.002 687.201 169.239C695.359 168.828 702.863 165.92 708.605 160.068ZM1103.71 79.1926C1108.26 79.2302 1126.12 79.7159 1129.54 78.8276L1130.18 77.8551C1128.74 74.512 1120.09 70.5933 1116.94 67.9751C1119.34 56.203 1116.63 46.0845 1110.66 35.9273C1106.53 28.932 1100.66 28.9639 1093.38 29.244C1084.04 30.6385 1076.91 33.7157 1071.02 41.6191C1066.34 47.9066 1064.33 55.7987 1065.45 63.5639C1066.52 70.833 1069.79 75.5381 1075.94 79.3019L1103.71 79.1926ZM507.954 185.723C518.278 184.074 525.739 179.161 531.898 170.6C538.431 161.35 541.023 149.876 539.102 138.71C538.353 134.203 536.717 131.173 534.006 127.484C531.101 126.853 526.866 125.717 524.023 125.951C513.963 127.572 506.275 132.523 500.027 141.04C492.821 150.863 484.947 174.128 496.453 183.568C499.634 186.178 503.996 185.788 507.954 185.723Z" fill="#0E1F3B"/>
</svg>
