<svg width="268" height="65" viewBox="0 0 268 65" fill="none" xmlns="http://www.w3.org/2000/svg">
<g clip-path="url(#clip0_142_46133)">
<path d="M50.5474 28.9273C50.5501 28.9291 50.5527 28.9307 50.5552 28.9322C50.5688 28.9407 50.581 28.9474 50.5894 28.9517L50.5913 28.9478L50.8188 28.5074C50.8402 28.5185 50.6782 28.4879 50.6782 28.4879L50.436 28.566M50.5474 28.9273C50.5087 28.8586 50.4452 28.7254 50.436 28.566M50.5474 28.9273C50.5423 28.924 50.5366 28.9207 50.5308 28.9166C50.5217 28.9101 50.5107 28.9014 50.4985 28.8912C50.4866 28.8811 50.4715 28.8672 50.4556 28.8502C50.4399 28.8333 50.4202 28.8098 50.4009 28.7798C50.3816 28.7499 50.3593 28.7082 50.3433 28.6558C50.3379 28.6383 50.3352 28.6191 50.3315 28.5992M50.5474 28.9273C50.5647 28.9582 50.5754 28.9773 50.5767 28.9781C50.5778 28.9783 50.5797 28.9779 50.5806 28.9781L50.5825 28.9791H50.5854L50.5864 28.98C50.5877 28.9803 50.5893 28.9806 50.5913 28.981C50.5955 28.9818 50.602 28.9817 50.6089 28.983L50.6509 28.9908C50.8261 29.101 51.0348 29.3049 51.2173 29.5718C51.4214 29.8705 51.5466 30.1739 51.5728 30.3843V30.3853C51.655 31.0463 51.6137 31.6235 51.6167 32.317V32.3189L51.6411 35.3873V35.3882C51.6663 37.6052 51.7785 39.9308 51.644 42.0992C51.644 42.0994 51.6433 42.1058 51.6411 42.1187C51.6386 42.1331 51.6351 42.1523 51.6294 42.1763C51.6177 42.2252 51.6005 42.2866 51.5776 42.358C51.5318 42.501 51.4678 42.6702 51.396 42.8375C51.3239 43.0053 51.2475 43.1625 51.1772 43.2847C51.0945 43.4285 51.0561 43.4602 51.0747 43.4459L51.0015 43.5015L50.9536 43.5797C50.8459 43.7538 50.6419 43.9884 50.5093 44.0855V44.0865C50.4721 44.112 50.4431 44.136 50.4233 44.1548C50.41 44.1675 50.3979 44.1791 50.3931 44.1841C50.3899 44.1874 50.3886 44.1896 50.3872 44.191L50.3862 44.192L50.1616 44.4088L50.2583 44.7056C50.2817 44.7775 50.3162 44.829 50.3325 44.8521C50.3519 44.8797 50.3713 44.9022 50.3853 44.9175C50.413 44.948 50.4424 44.9751 50.4653 44.9957C50.5121 45.0375 50.5687 45.0832 50.6167 45.1216C50.6691 45.1637 50.7152 45.1998 50.7563 45.2339C50.8015 45.2714 50.8179 45.2877 50.8179 45.2877L50.8218 45.2916C50.9832 45.4627 51.1754 45.7335 51.3296 46.0318C51.4873 46.337 51.5774 46.6186 51.5874 46.816C51.7123 49.2639 51.655 51.7085 51.6802 54.1959C51.6851 54.6894 51.6974 55.2137 51.6694 55.6675V55.6685C51.6554 55.8992 51.6156 56.127 51.5522 56.3482V56.3492C51.3777 56.9603 51.0952 57.4225 50.6675 57.9351C48.7705 60.208 45.6332 61.3588 42.7026 62.1177L42.1196 62.2642C38.1557 63.2197 34.0939 63.6754 30.0229 63.6216H30.021C29.1157 63.6123 28.2636 63.567 27.353 63.5093L27.3442 63.5084H27.3354C26.3209 63.4802 25.3297 63.4375 24.354 63.2916C24.2037 63.2691 24.0327 63.2644 23.9106 63.2593C23.7683 63.2534 23.6767 63.2469 23.6157 63.2339H23.6147C23.0151 63.1058 22.3962 63.0094 21.7827 62.9224L19.9839 62.6666C19.8931 62.6523 19.7824 62.6153 19.6206 62.5562C19.4818 62.5055 19.2924 62.4336 19.105 62.3931H19.106C18.7593 62.3103 18.4157 62.2386 18.0747 62.1685C15.8541 61.525 13.716 60.7785 11.8267 59.5113C11.5513 59.3265 11.317 59.1046 10.9976 58.8482L10.9917 58.8433C10.4511 58.4229 10.0922 58.0365 9.7583 57.4634C9.15989 56.4364 9.17721 55.7883 9.17822 54.4839V52.3345L9.17627 49.1324V49.1314C9.17493 48.5141 9.17841 47.8993 9.18213 47.2798C9.1874 46.4324 9.64686 45.6475 10.3657 45.2584L10.9478 44.9439L10.4858 44.4703C10.3374 44.3179 10.0155 43.9387 9.72217 43.5357C9.57651 43.3356 9.44486 43.1393 9.34814 42.9693C9.29992 42.8845 9.26332 42.812 9.23877 42.7535C9.22663 42.7245 9.21851 42.7011 9.21338 42.6841C9.20965 42.6718 9.20795 42.6649 9.20752 42.6627C9.15303 42.2473 9.17773 41.3911 9.17725 40.8589L9.17627 37.0963V37.0953C9.1747 34.714 8.99733 32.3329 9.22412 30.0484V30.0474C9.2217 30.0718 9.2259 30.0256 9.30811 29.8892C9.37875 29.772 9.47923 29.6334 9.59424 29.4918C9.83491 29.1954 10.0825 28.9561 10.1841 28.8873L10.6685 28.5582L10.2681 28.1314C9.50413 27.3171 9.26567 26.7864 9.18213 26.2339C9.13751 25.9389 9.13456 25.619 9.14502 25.2115C9.15524 24.8132 9.17769 24.3287 9.17432 23.7603V23.7593C9.1655 22.4999 9.16591 21.2404 9.17529 19.981V19.9761C9.17459 19.4154 9.14007 18.9449 9.15381 18.4517L9.15576 18.3599L9.12646 18.273C9.01713 17.9584 9.01549 17.7303 9.10986 17.3873L9.12061 17.3492L9.12549 17.3101C9.19769 16.6635 9.14434 16.0769 9.0835 15.4918C9.0778 15.4363 9.0873 15.3318 9.11084 15.148C9.12803 15.0138 9.16292 14.7785 9.14209 14.5953C8.96476 13.0413 9.44088 11.9846 10.2485 11.1783C11.0842 10.3441 12.2959 9.75732 13.6235 9.22906C15.4278 8.51119 16.9085 8.1699 18.7983 7.7984H18.8003C20.5169 7.45649 22.2512 7.21616 23.9946 7.07867H23.9966C24.1892 7.06295 24.3899 7.05634 24.603 7.05035C24.812 7.04449 25.0358 7.03967 25.2554 7.02594L25.2593 7.02496C28.3131 6.81169 31.3776 6.80956 34.4321 7.0191C35.2084 7.07461 35.8271 7.06416 36.5249 7.16364C36.825 7.20644 37.1295 7.22897 37.4185 7.24762C37.7132 7.26664 37.9886 7.28153 38.2583 7.31012C38.5631 7.34243 38.8094 7.38658 39.1353 7.44293C39.2583 7.46418 39.3903 7.47525 39.4966 7.48395C39.6123 7.49342 39.7034 7.50085 39.7827 7.51324C39.8902 7.53009 39.9998 7.55647 40.1284 7.58844C40.2506 7.61882 40.3957 7.65641 40.5444 7.68317C40.6847 7.70842 40.8338 7.71404 40.9409 7.7193C41.0627 7.72528 41.1453 7.73063 41.2134 7.74274H41.2144C42.8002 8.02201 44.367 8.4077 45.9038 8.89801V8.89899L45.9067 8.89996C47.6774 9.45157 49.6347 10.2299 50.7886 11.5582C51.6568 12.5577 51.5579 13.7518 51.5933 15.2828C51.6423 17.413 51.6396 19.5484 51.6069 21.6832V21.6841C51.6043 21.8853 51.6152 22.1004 51.6235 22.2877C51.6279 22.386 51.6319 22.4786 51.6333 22.565L51.6304 22.8072C51.5971 23.4084 51.6155 24.0146 51.6235 24.5826C51.6317 25.1604 51.6287 25.7101 51.5601 26.2486C51.4828 26.8533 51.0369 27.4113 50.4927 27.9009C50.483 27.9095 50.4803 27.9114 50.4487 27.938C50.4255 27.9576 50.3854 27.9925 50.3462 28.0357C50.2791 28.1097 50.1037 28.3356 50.2026 28.6422L50.3315 28.5992M50.436 28.566C50.427 28.4085 50.4693 28.2268 50.6353 28.0591L50.6274 28.0504C50.615 28.0556 50.601 28.0612 50.5864 28.0689C50.5609 28.0826 50.5278 28.1036 50.4937 28.1334C50.4591 28.1634 50.4198 28.2058 50.3872 28.2632C50.3709 28.292 50.3562 28.3236 50.3452 28.358C50.3342 28.3925 50.327 28.4285 50.3237 28.4644C50.3193 28.5132 50.3241 28.5584 50.3315 28.5992M50.436 28.566L50.3315 28.5992M50.8276 28.273L50.7368 28.1724L50.6929 28.4058C50.6997 28.3945 50.7066 28.3824 50.7163 28.3716L50.8276 28.273ZM50.8276 28.273C50.8465 28.256 50.8644 28.2376 50.8833 28.2203C50.8506 28.1157 50.8053 28.0394 50.7866 28.0113C50.7844 28.0114 50.7821 28.0121 50.7798 28.0123C50.7761 28.0126 50.7718 28.0127 50.7671 28.0132L50.7378 28.1714L50.8276 28.273ZM50.6362 28.0582L50.6284 28.0494C50.6373 28.0456 50.6455 28.0423 50.6528 28.0396C50.6548 28.0389 50.6568 28.0373 50.6587 28.0367C50.651 28.0439 50.6434 28.0509 50.6362 28.0582Z" fill="#0E1F3B" stroke="#CBD5E1"/>
<path d="M20.3652 24.5615C20.4309 24.5812 20.7052 24.6489 20.7427 24.6642C21.1792 24.8429 21.6553 25.2105 22.0549 25.4664L24.266 26.8546L34.6585 33.3899L37.0976 34.9365C37.3482 35.0981 37.6045 35.2546 37.8507 35.4228C37.9595 35.4973 38.0619 35.59 38.1754 35.6561C38.2521 35.7007 38.341 35.7133 38.4174 35.7553C38.5612 35.8347 38.6885 35.9595 38.8295 36.0473C39.4275 36.4197 43.1688 38.6876 43.2888 38.989C43.3045 39.0287 43.2645 39.0681 43.2454 39.102C42.94 39.1213 42.6345 39.1328 42.3287 39.1371C41.9357 39.1388 37.8683 39.0756 37.8753 39.0813C38.0476 39.0482 38.209 39.0862 38.364 39.0738C38.7556 39.0428 39.6908 39.115 40.0326 39.0638C38.2417 39.0278 36.3524 39.0571 34.5517 39.0577L32.253 39.0583C31.846 39.0586 31.3464 39.0462 30.9444 39.0669C31.3733 39.0681 31.8021 39.0738 32.2309 39.0845C31.7201 39.104 30.962 39.115 30.4549 39.083L30.7766 39.0652C30.4815 39.0603 29.7899 39.0341 29.518 39.0793L29.642 39.0802C29.109 39.1339 28.1579 39.1733 27.6236 39.136C27.557 39.224 27.5736 39.1748 27.5762 39.2898C27.7226 39.5222 28.8478 40.6235 29.0906 40.8668L32.3017 44.089L40.6136 52.4787L42.0758 53.9587C42.3366 54.2185 43.2426 55.0986 43.4013 55.381C43.3042 55.5616 41.9293 55.4687 41.6887 55.4371L27.757 55.4388L23.138 55.4382C22.7161 55.4382 20.6528 55.4865 20.4331 55.3724L20.408 55.2812C20.3618 55.056 20.3837 53.5543 20.3843 53.2184L20.3845 48.5458L20.3836 32.5188L20.3855 27.4003C20.3857 26.5494 20.4201 25.3815 20.3652 24.5615Z" fill="#B5242C"/>
<path d="M8.62809 17.2544C8.77426 17.4462 8.71554 18.2021 8.65377 18.4377C8.50699 18.0155 8.51021 17.6827 8.62809 17.2544Z" fill="#05326E"/>
<path d="M50.8047 44.4895L50.7915 44.4409C50.8469 44.2672 51.2044 43.8711 51.379 43.8427C51.248 44.0543 51.0035 44.344 50.8047 44.4895Z" fill="#05326E"/>
<path d="M25.8305 43.0479C25.9293 42.8383 25.9781 42.6596 26.1737 42.5573C26.4318 42.569 26.5448 43.2012 26.6272 43.4325C26.7278 43.6611 26.8243 44.0143 27.0148 44.1115C27.1688 44.1245 27.2313 44.0508 27.3528 43.9516C27.4607 43.8423 27.5518 43.7716 27.67 43.6764C27.8536 43.5199 28.0409 43.3686 28.2319 43.2219C28.3153 43.1604 28.3645 43.1063 28.4641 43.1072C28.5131 43.1489 28.5162 43.1388 28.5181 43.2372C28.5288 43.8207 28.4462 44.4282 28.4451 45.012C28.9257 44.9468 29.4074 44.8938 29.8905 44.8539C30.0648 44.8383 30.1627 44.8375 30.3373 44.8423C30.2189 45.0054 29.9792 45.3563 29.8556 45.4929L29.8396 45.5168C29.7171 45.6977 29.2267 46.2643 29.206 46.4087C29.2468 46.4349 29.2287 46.4334 29.2558 46.4317C29.4603 46.5212 29.6407 46.602 29.8391 46.7035C30.083 46.839 30.9351 46.9908 30.8313 47.2917C30.659 47.4657 30.248 47.5954 30.0066 47.6906C29.6883 47.8379 29.4706 47.881 29.1579 47.9923C29.2994 48.2152 29.5297 48.5848 29.7073 48.7657C29.8452 48.9176 30.2755 49.3959 30.3004 49.584C29.9507 49.7818 28.8174 49.4632 28.4043 49.42C28.4711 50.0758 28.5402 50.7287 28.4963 51.3885C28.148 51.1776 27.3351 50.5253 26.9948 50.2357C26.84 50.5127 26.7321 50.7836 26.6089 51.0761C26.5347 51.3114 26.4313 51.7017 26.2879 51.8826C26.2058 51.9476 26.1878 51.9496 26.1024 51.9156C25.8984 51.6927 25.6303 50.9294 25.4996 50.6067L25.3365 50.2291C25.1656 50.4054 23.9933 51.3373 23.8339 51.3879L23.7925 51.3631C23.6484 50.9849 23.9765 49.8782 24.014 49.4284C23.5562 49.4295 23.1924 49.5983 22.7166 49.615C22.5844 49.6452 22.1247 49.6892 22.0521 49.5713C22.132 49.3444 22.6431 48.7297 22.8213 48.5025C22.9637 48.3121 23.05 48.1856 23.1635 47.9785C22.9197 47.9158 22.7593 47.8747 22.5271 47.7821C22.2162 47.6313 21.8616 47.4898 21.5403 47.3541C21.4567 47.2511 21.4707 47.3061 21.4744 47.1913C21.6415 46.8847 22.117 46.9152 22.4042 46.7501C22.6143 46.6175 22.9352 46.4766 23.1654 46.382C23.0219 46.1979 22.8626 46.0121 22.715 45.828C22.4075 45.4343 22.23 45.2812 22.0267 44.8242C22.2019 44.8306 22.349 44.8306 22.5214 44.8659C23.0177 44.8953 23.5066 44.9706 24.01 45.0034C23.9646 44.4098 23.6874 43.855 23.7883 43.1149C23.8604 43.0934 23.8918 43.0827 23.9728 43.1331C24.4278 43.4161 24.8451 43.7931 25.2528 44.1302C25.3689 44.1503 25.31 44.1538 25.4328 44.0937C25.4982 43.8371 25.7215 43.3174 25.8305 43.0479Z" fill="#FEFEFE"/>
<path d="M29.8391 46.7036C30.083 46.839 30.9351 46.9909 30.8313 47.2917C30.659 47.4657 30.2481 47.5954 30.0066 47.6906C30.0864 47.6029 30.2797 47.4841 30.3857 47.4177C30.3267 47.3746 30.3558 47.3933 30.2464 47.4111L30.2626 47.416C30.372 47.3605 30.5636 47.2978 30.6263 47.2273C30.5879 47.0429 30.0595 47.0409 29.8374 46.8724L29.8391 46.7036Z" fill="#F2D4D7"/>
<path d="M23.7881 43.115C23.8601 43.0934 23.8916 43.0827 23.9726 43.1331C24.4275 43.4161 24.8449 43.7932 25.2526 44.1302C24.8131 44.0969 24.7313 43.8633 24.3934 43.6531C24.1847 43.5231 23.9329 43.2099 23.7881 43.115Z" fill="#F2D4D7"/>
<path d="M25.4995 50.6068C25.9185 50.7135 25.9175 51.4613 26.1961 51.7408C26.2178 51.7736 26.2725 51.8515 26.2878 51.8826C26.2057 51.9476 26.1878 51.9496 26.1024 51.9157C25.8984 51.6928 25.6303 50.9295 25.4995 50.6068Z" fill="#F2D4D7"/>
<path d="M22.7167 49.6151C22.5845 49.6453 22.1248 49.6893 22.0522 49.5713C22.1321 49.3444 22.6432 48.7298 22.8214 48.5026C22.8298 49.0338 22.2316 49.3228 22.2294 49.601C22.4195 49.6415 22.5336 49.5909 22.7167 49.6151Z" fill="#F2D4D7"/>
<path d="M21.5403 47.3541C21.4567 47.2511 21.4707 47.3061 21.4744 47.1913C21.6415 46.8847 22.117 46.9152 22.4042 46.7501L22.4972 46.8718C22.3128 47.0211 22.1268 47.0449 21.8951 47.063C21.8286 47.1134 21.7261 47.1853 21.6726 47.2434L21.5403 47.3541Z" fill="#F2D4D7"/>
<path d="M25.8306 43.0479C25.9294 42.8383 25.9782 42.6596 26.1738 42.5573C26.4319 42.569 26.5449 43.2012 26.6273 43.4325C26.2999 43.3214 26.4113 42.9329 26.2505 42.7546L26.1882 42.7525C26.1069 42.804 26.0924 42.8673 26.0525 42.9585L25.8306 43.0479Z" fill="#F5E5EA"/>
<path d="M22.0269 44.8243C22.2021 44.8306 22.3491 44.8306 22.5216 44.866C22.3882 44.8686 22.363 44.8447 22.2739 44.9083C22.2751 45.1988 22.8085 45.4507 22.7152 45.8281C22.4077 45.4343 22.2301 45.2813 22.0269 44.8243Z" fill="#F2D4D7"/>
<path d="M25.8303 43.0479L26.0522 42.9585C25.8818 43.366 25.7625 43.7834 25.4326 44.0937C25.4979 43.8372 25.7212 43.3174 25.8303 43.0479Z" fill="#F2D4D7"/>
<path d="M21.5405 47.3541L21.6728 47.2434C22.1247 47.4145 22.2004 47.3981 22.5273 47.7821C22.2164 47.6314 21.8618 47.4899 21.5405 47.3541Z" fill="#F2D4D7"/>
<path d="M23.1655 46.382L23.1932 46.4193C23.083 46.6267 22.7063 46.8007 22.4973 46.8718L22.4043 46.7501C22.6144 46.6175 22.9353 46.4766 23.1655 46.382Z" fill="#F2D4D7"/>
<path d="M29.7075 48.7657C29.8454 48.9176 30.2757 49.3959 30.3006 49.584C30.2399 49.542 30.1492 49.5285 30.1011 49.492C29.8619 49.3091 29.7822 49.0473 29.7075 48.7657Z" fill="#F9C6D3"/>
<path d="M26.1963 51.7408C26.4041 51.4885 26.227 51.2234 26.609 51.0761C26.5348 51.3114 26.4314 51.7017 26.288 51.8826C26.2726 51.8515 26.218 51.7736 26.1963 51.7408Z" fill="#F5E5EA"/>
<path d="M29.8905 44.8539C30.0647 44.8383 30.1627 44.8375 30.3372 44.8424C30.2189 45.0054 29.9791 45.3563 29.8555 45.4929C29.8681 45.2726 29.9584 45.3287 30.0007 45.1622C29.9363 45.2111 29.9128 45.2617 29.8653 45.3316L29.8418 45.3307C29.888 45.1303 30.0026 45.1205 30.0275 44.9517C29.9775 44.8567 30.0147 44.8961 29.8905 44.8539Z" fill="#F5E5EA"/>
<path d="M29.2559 46.4318C29.4603 46.5212 29.6408 46.602 29.8391 46.7036L29.8374 46.8724C29.5339 46.7398 29.405 46.7194 29.2559 46.4318Z" fill="#F2D4D7"/>
<path d="M28.2318 43.222C28.2514 43.4817 28.1585 43.501 27.9587 43.6511C27.8305 43.635 27.7999 43.6485 27.6699 43.6764C27.8535 43.52 28.0408 43.3687 28.2318 43.222Z" fill="#F2D4D7"/>
<path d="M27.6698 43.6764C27.7998 43.6485 27.8304 43.635 27.9586 43.6511C27.8327 43.7471 27.6055 43.9381 27.4703 43.9882C27.4327 43.9767 27.3892 43.9643 27.3525 43.9516C27.4605 43.8423 27.5515 43.7716 27.6698 43.6764Z" fill="#F5E5EA"/>
<path d="M25.6009 32.9066C25.6781 33.0007 25.7667 33.1033 25.842 33.1968C26.3494 33.8273 26.4054 33.1307 26.6712 32.9719C26.8362 33.0312 26.9491 33.6506 26.956 33.8341C27.1136 33.716 27.476 33.4041 27.6503 33.4079C27.8044 33.546 27.7043 34.0137 27.6909 34.2192C27.8419 34.2067 28.3679 34.1259 28.4482 34.134L28.4854 34.1766C28.4563 34.4171 28.2378 34.6974 28.1827 34.922C28.2442 34.9936 28.7458 35.0868 28.9914 35.239L28.9601 35.2631C28.7458 35.4236 28.3217 35.5599 28.4638 35.8881C28.6778 36.0687 28.8348 35.9629 29.0328 35.8314C29.1509 35.7403 29.2628 35.637 29.3749 35.5375C30.0343 34.9289 30.2128 34.6177 30.6357 33.8479C30.7093 34.3491 30.6671 34.593 30.4813 35.0635C30.0315 36.5767 28.6619 37.7478 27.156 38.1214C26.5842 38.2632 25.6016 38.21 25.0254 38.0754C24.4934 37.9144 23.9575 37.6244 23.4959 37.3299C22.7032 36.8568 21.7577 35.4909 21.6693 34.5514C21.6551 34.3065 21.6574 34.164 21.6707 33.9181L21.9435 34.3438C22.2917 34.8006 22.5086 35.0888 22.9317 35.4849C23.0291 35.5804 23.1514 35.6983 23.2558 35.7846C23.4211 35.8832 23.5295 35.9502 23.7249 35.9804C23.8444 35.9022 23.9195 35.8734 23.9402 35.7239C23.9101 35.61 23.8689 35.5916 23.7753 35.5108C23.635 35.4417 23.4271 35.3641 23.4364 35.1846C23.4957 35.1044 23.562 35.1006 23.6594 35.0739L24.1604 34.9476L24.149 34.9076C24.0799 34.6741 23.7983 34.2204 23.8201 34.1469C24.0892 34.1284 24.3247 34.2147 24.6825 34.1894C24.6426 33.9617 24.5592 33.6517 24.6472 33.4471C24.8304 33.3085 25.1612 33.6618 25.2949 33.796L25.3458 33.8467C25.4103 33.5493 25.4959 33.1925 25.6009 32.9066Z" fill="#FEFEFE"/>
<path d="M21.6694 34.5514C21.7056 34.6229 21.7013 34.6272 21.7618 34.6752L21.803 34.6422C22.0285 35.1705 22.2526 35.7397 22.5744 36.2111C22.8195 36.5703 23.1673 36.868 23.4684 37.1755C23.4946 37.2022 23.4947 37.294 23.4961 37.3299C22.7033 36.8568 21.7579 35.4909 21.6694 34.5514Z" fill="#F2D4D7"/>
<path d="M21.9434 34.3438C22.2916 34.8006 22.5085 35.0888 22.9316 35.4848C23.029 35.5803 23.1513 35.6982 23.2557 35.7845L23.1161 35.8809C23.0001 35.8075 22.6243 35.4397 22.5192 35.3269C22.2778 35.0963 22.0983 34.8728 21.9414 34.5763C21.9525 34.4854 21.9466 34.4347 21.9434 34.3438Z" fill="#F2D4D7"/>
<path d="M30.6358 33.8479C30.7094 34.3491 30.6671 34.593 30.4814 35.0635C30.4724 34.7543 30.6814 34.4003 30.6308 34.0493C30.6308 34.0315 30.6305 34.0138 30.6305 33.996C30.5404 34.1414 30.1918 34.6608 30.2218 34.8009C30.2646 34.7747 30.3077 34.7491 30.351 34.7244C30.3642 34.8049 30.3488 34.7957 30.3994 34.8527L30.3754 34.878C30.2844 34.8737 30.266 34.8671 30.1795 34.8461C30.0746 34.8927 29.9599 35.1719 29.8827 35.2686C29.8299 35.3344 29.7412 35.4161 29.6777 35.4705C29.5773 35.4918 29.474 35.5119 29.375 35.5375C30.0343 34.9289 30.2128 34.6177 30.6358 33.8479Z" fill="#F2D4D7"/>
<path d="M21.6707 33.9181L21.9435 34.3438C21.9467 34.4347 21.9526 34.4854 21.9415 34.5763C21.8849 34.5407 21.8332 34.5023 21.7816 34.4596L21.7422 34.4707C21.747 34.5457 21.7525 34.6019 21.7617 34.6752C21.7012 34.6272 21.7055 34.6229 21.6693 34.5514C21.6551 34.3065 21.6574 34.164 21.6707 33.9181Z" fill="#F9C6D3"/>
<path d="M29.3748 35.5375C29.4739 35.5119 29.5771 35.4917 29.6775 35.4705C29.4722 35.6839 29.341 35.9096 29.0327 35.8314C29.1508 35.7402 29.2627 35.637 29.3748 35.5375Z" fill="#F2D4D7"/>
<path d="M23.7753 35.5107C23.6349 35.4417 23.427 35.3641 23.4363 35.1846C23.4956 35.1043 23.562 35.1006 23.6594 35.0739C23.5797 35.2988 23.7231 35.2841 23.7753 35.5107Z" fill="#F5E5EA"/>
<path d="M23.1162 35.8809L23.2558 35.7845C23.4211 35.8832 23.5295 35.9502 23.725 35.9804C23.3691 36.0149 23.5022 36.1317 23.1162 35.8809Z" fill="#F2D4D7"/>
<path d="M11.1274 26.3019C11.1627 25.4885 11.1404 24.5969 11.1406 23.7731L11.139 19.2169L11.1391 17.5975C11.1392 17.2365 11.127 16.8218 11.1717 16.4687L11.207 16.4436C11.4065 16.4944 11.705 16.8392 11.9028 16.9727C12.1535 17.142 12.3551 17.2486 12.6211 17.3865C13.6986 17.9433 14.8693 18.2831 16.0182 18.6525C16.7657 18.8928 17.6037 19.0442 18.3687 19.2223C18.8198 19.3272 19.2606 19.4402 19.709 19.5531C19.9028 19.6019 20.2568 19.5363 20.4655 19.5827C20.7059 19.6164 21.0801 19.7344 21.2924 19.7538C22.033 19.8216 22.7183 19.9826 23.4608 20.0338C23.7379 20.0529 24.0898 20.144 24.3828 20.1656C24.8925 20.2032 25.4018 20.1914 25.9119 20.2162C26.4073 20.2362 26.927 20.3803 27.4195 20.3902C29.5467 20.4331 31.6794 20.4217 33.8066 20.3865C34.1551 20.3807 34.5546 20.2348 34.9138 20.2199C35.4033 20.1997 35.8926 20.1948 36.3816 20.1677C36.689 20.1469 37.0496 20.0553 37.3626 20.0244C37.6113 19.975 37.9915 20.0159 38.2248 19.9553C38.7118 19.8289 39.2134 19.8306 39.6912 19.752C41.2516 19.5078 42.796 19.1653 44.3156 18.7266C44.7732 18.5962 45.2264 18.4868 45.6768 18.3229C46.8654 17.8905 48.0568 17.3321 49.1084 16.6153C49.1954 16.556 49.2563 16.3442 49.4052 16.2615C49.448 16.2752 49.5137 16.2986 49.5182 16.3494C49.5624 16.9148 49.4978 17.499 49.5003 18.0718C49.5103 20.2875 49.5148 22.5041 49.5075 24.7198C49.5067 24.9906 49.479 25.4368 49.4007 25.6879C49.3859 25.8256 49.3864 25.9188 49.3263 26.0426C49.2418 26.1104 49.2896 26.09 49.1738 26.0948C49.0807 26.0504 49.0835 26.0519 49.0065 25.982C48.6787 26.264 48.164 26.8345 47.8803 27.0479C46.612 27.9801 45.1559 28.7159 43.6814 29.2378C42.8819 29.5209 41.959 29.7444 41.1363 29.9726C40.8804 30.0175 40.5743 30.145 40.3248 30.1797C39.5796 30.2833 38.8162 30.4719 38.081 30.6028C37.5853 30.6911 37.1083 30.6843 36.6012 30.816C36.317 30.8898 35.791 30.8005 35.487 30.8755C34.7272 30.9873 33.7915 31.2254 33.0502 30.9034C31.9894 30.2466 30.8743 29.5253 29.8152 28.8563L23.481 24.8674L21.1782 23.416C20.4794 22.9687 19.7979 22.5103 19.0803 22.0932L19.079 29.9044C18.8416 29.8227 18.2965 29.6962 18.0154 29.6161C17.3121 29.4141 16.6164 29.1852 15.9297 28.9297C15.2786 28.6805 14.525 28.325 13.8968 28.0109C13.5677 27.8463 13.1685 27.5455 12.8697 27.3971C12.105 27.017 11.688 27.0006 11.1274 26.3019Z" fill="#B5242C"/>
<path d="M49.0063 25.982C49.0869 25.8816 49.2539 25.8358 49.4005 25.6879C49.3857 25.8256 49.3862 25.9188 49.3261 26.0426C49.2416 26.1104 49.2894 26.09 49.1736 26.0948C49.0805 26.0504 49.0833 26.0519 49.0063 25.982Z" fill="#5B286C"/>
<path d="M11.1424 55.2028L11.1432 50.3933C11.1432 50.0629 11.1124 48.0113 11.1848 47.8807C11.472 47.7125 12.1231 48.4942 12.4306 48.6748C14.2229 49.7267 16.2894 50.255 18.2841 50.7425C18.5931 50.8181 18.7576 50.7992 19.0763 50.9323L19.079 56.7585L37.6912 56.7548L43.3324 56.7551C44.2704 56.7551 45.3345 56.7798 46.2621 56.7508C46.2613 56.6927 46.2635 56.6452 46.2247 56.5952C45.6548 55.8655 41.3284 51.8334 41.2646 51.4006L41.0453 51.2732L41.0814 51.2409C42.2512 51.0085 43.4113 50.727 44.5585 50.3968C45.019 50.2648 45.5575 50.1299 46.0042 49.9798C47.4194 49.4986 48.7546 48.7982 49.9642 47.9029C49.9525 48.4235 49.9119 48.9366 49.9032 49.4589C49.8873 50.4276 49.9298 51.4014 49.9111 52.3698C49.8935 53.2698 49.955 54.2008 49.8465 55.0918C49.8235 55.2805 49.4683 55.7053 49.3292 55.8462C49.1286 56.0499 48.8716 56.2486 48.6646 56.4482C48.3655 56.7364 48.0916 57.0349 47.7361 57.2521C46.5139 58.085 45.2044 58.7005 43.8267 59.2076C43.5145 59.3226 43.1268 59.3968 42.8026 59.507C42.0576 59.7598 41.2892 59.9309 40.5308 60.1346C40.3907 60.1722 40.1644 60.1573 40.0183 60.1895C39.8415 60.2286 39.651 60.2939 39.4734 60.3252C39.1005 60.4015 38.7069 60.4463 38.3371 60.5364C38.1225 60.5884 37.7385 60.5614 37.5558 60.6146C36.9336 60.7952 36.4441 60.7972 35.801 60.8133C35.4342 60.8222 34.9665 60.9896 34.5863 60.9873C32.8827 60.9983 31.1741 61.0241 29.4705 61.0083C28.5258 61.0063 27.5826 60.9994 26.6377 60.9902C26.1141 60.985 25.5095 60.826 25.0083 60.8237C24.3145 60.8208 23.8477 60.7101 23.1862 60.6166L21.8459 60.4161C21.6736 60.39 21.4239 60.3733 21.2607 60.3356C18.3917 59.6689 15.3945 58.9266 12.9213 57.2196C12.5905 56.9912 12.3514 56.6737 12.0619 56.4217C11.5972 56.0171 11.451 55.6921 11.1424 55.2028Z" fill="#B5242C"/>
<path d="M41.2646 51.4006C41.4814 51.5349 42.4354 52.5484 42.6916 52.8064L46.5277 56.6656L46.5364 56.7134C46.4494 56.7611 46.3635 56.7496 46.2622 56.7508C46.2614 56.6927 46.2636 56.6452 46.2247 56.5952C45.6549 55.8655 41.3284 51.8334 41.2646 51.4006Z" fill="#05326E"/>
<path d="M40.3238 35.5078C40.2357 35.4831 40.1649 35.4774 40.1126 35.4057C40.1722 35.3013 40.6698 35.2697 40.8186 35.2395C41.3429 35.1288 41.8654 35.0111 42.3869 34.8869C44.6886 34.3214 46.8635 33.5138 48.9683 32.3885C49.1775 32.2767 49.3857 32.112 49.5896 31.9818C49.5138 33.1977 49.5418 34.4168 49.5426 35.6401C49.5462 36.8076 49.5558 38.0003 49.5552 39.1637C49.5549 39.5992 49.7284 41.5483 49.6285 41.7557C48.6779 43.7273 45.9398 44.8378 44.0351 45.5976C43.6843 45.7374 43.5145 45.7222 43.174 45.8421C42.3827 46.1001 41.5784 46.3012 40.7725 46.5033C40.5694 46.5543 40.3053 46.5672 40.0896 46.6178C39.5578 46.7429 39.0336 46.8028 38.4999 46.9353C38.3536 46.9719 37.9821 46.9785 37.8044 47.0041C37.5653 47.0383 37.3708 47.0938 37.1428 47.137C37.2995 47.4338 37.9065 47.9687 38.1639 48.2253L39.477 49.5423C39.7313 49.796 39.9777 50.0703 40.2334 50.326C40.4723 50.565 40.9336 50.9458 41.0813 51.2409L41.0452 51.2731C40.8942 51.251 40.6435 50.9507 40.5243 50.8314L39.3248 49.6202L34.3846 44.564C33.9256 44.1 33.492 43.7077 33.0388 43.2196C32.3783 42.5607 31.6714 41.9214 31.0551 41.2207C30.8274 40.9622 30.4948 40.8063 30.4218 40.4669L30.3687 40.414L30.3745 40.3429C30.4598 40.2699 30.4819 40.2472 30.5997 40.2497C31.0442 40.2587 31.4792 40.2785 31.9246 40.2791L35.6404 40.2831L47.5578 40.2497L47.5483 40.2175C47.5942 40.1928 47.5744 40.2098 47.6071 40.166C47.3198 40.0248 46.9855 39.875 46.7136 39.7182C46.1874 39.4145 45.6816 39.0513 45.1689 38.7251C44.2748 38.1686 43.3866 37.6023 42.5046 37.0262L41.0153 36.09C40.8267 35.9689 40.6281 35.8458 40.4443 35.7169C40.3641 35.6609 40.3627 35.6076 40.3238 35.5078Z" fill="#B5242C"/>
<path d="M40.3238 35.5079C42.0089 36.541 43.6809 37.5968 45.3389 38.6754C45.6159 38.8517 47.8102 40.2049 47.8463 40.2886C47.7769 40.3432 47.7011 40.3346 47.6034 40.3352C44.0275 40.3576 40.4466 40.3464 36.8704 40.3467L32.5722 40.347C31.9313 40.347 31 40.3769 30.3745 40.343C30.4598 40.2699 30.4819 40.2472 30.5997 40.2498C31.0442 40.2587 31.4792 40.2785 31.9246 40.2791L35.6403 40.2831L47.5578 40.2498L47.5483 40.2176C47.5942 40.1928 47.5743 40.2098 47.6071 40.1661C47.3198 40.0249 46.9855 39.875 46.7136 39.7183C46.1874 39.4145 45.6816 39.0513 45.1689 38.7251C44.2748 38.1686 43.3866 37.6023 42.5046 37.0262L41.0153 36.09C40.8267 35.9689 40.6281 35.8458 40.4443 35.717C40.364 35.6609 40.3626 35.6077 40.3238 35.5079Z" fill="#05326E"/>
<path d="M30.4219 40.4669C30.7069 40.6507 31.2991 41.326 31.5892 41.6133L35.1467 45.1841L36.1484 46.202C36.3739 46.4329 36.8858 46.9848 37.1429 47.137C37.2996 47.4338 37.9066 47.9688 38.164 48.2253L39.4771 49.5423C39.7313 49.796 39.9778 50.0704 40.2335 50.3261C40.4724 50.5651 40.9337 50.9459 41.0814 51.241L41.0453 51.2732C40.8942 51.251 40.6436 50.9508 40.5244 50.8314L39.3249 49.6202L34.3847 44.564C33.9256 44.1001 33.492 43.7078 33.0388 43.2197C32.3784 42.5608 31.6715 41.9214 31.0552 41.2208C30.8275 40.9622 30.4949 40.8063 30.4219 40.4669Z" fill="#05326E"/>
<path d="M11.1782 32.1133C11.3807 32.1881 11.6562 32.3659 11.8507 32.4758C13.4966 33.4071 15.2786 34.0318 17.1018 34.4771C17.8032 34.6485 18.3545 34.8797 19.0791 34.8702L19.0745 46.1597C18.91 46.1145 18.7208 46.0205 18.5213 45.9655C16.6577 45.4516 14.6484 44.7124 13.0649 43.555C12.8197 43.3759 12.5079 43.0506 12.286 42.8303C12.0908 42.6364 11.7938 42.3505 11.6448 42.1267C11.5325 41.9582 11.4958 41.5184 11.439 41.301C11.3392 40.9185 11.1769 40.494 11.1556 40.0999C11.1285 39.598 11.1385 39.057 11.1387 38.5506L11.1389 35.7397L11.1362 33.4705C11.1359 33.1309 11.1156 32.4069 11.1782 32.1133Z" fill="#B5242C"/>
</g>
<path d="M197.995 0.00537198C201.02 -0.103513 203.004 1.45968 205.477 3.16397C202.317 3.46219 199.269 4.39956 201.83 8.44201C202.753 9.89927 204.538 11.4101 205.787 12.6574L211.979 18.8577L238.324 18.8586C236.66 17.8912 234.92 17.013 233.584 15.5919C227.026 8.84293 234.684 0.471789 242.27 4.07652C246.142 6.12087 251.178 9.31669 253.351 13.3202C255.797 17.8325 252.468 18.859 258.503 18.8162C259.276 19.3885 262.641 21.4416 263.033 22.0271L262.964 22.2765C261.837 22.9352 257.729 22.2938 256.282 22.7278C255.688 23.4049 255.91 24.5518 255.91 25.4532L255.909 30.2575L255.917 50.8795C255.917 52.8541 256.036 59.3125 255.718 60.9913L255.57 61.0703C254.53 60.7752 250.993 58.1656 249.857 57.3685C249.75 54.8365 249.866 51.3115 249.869 48.7132L249.866 31.968C249.868 30.1318 250.02 24.2255 249.646 22.9521C249.262 22.5766 244.192 22.6009 243.643 22.7866C242.122 23.3005 243.412 27.3688 242.743 28.8549C241.838 29.6705 231.36 28.7268 229.5 29.3532C227.71 29.6972 225.955 30.8368 226.478 32.9836C226.68 33.9246 226.869 34.1291 227.815 33.9268C231.466 33.1452 234.04 33.8824 237.15 35.8855C241.555 38.7212 247.441 42.9569 243.703 49.0028C242.873 48.5183 242.075 47.8646 241.241 47.3469C240.958 47.1445 238.034 45.5689 238.119 45.264C238.715 43.2347 239.379 41.9438 239.049 39.7301C238.646 37.0354 236.154 37.2949 234.11 37.7095C229.617 38.6208 225.395 43.599 226.347 48.5312C227.329 53.6304 233.453 52.7445 237.099 51.891C237.784 52.2582 241.836 54.7653 242.05 55.2584L241.872 55.466C240.059 56.1708 236.481 56.3904 234.607 55.7552C225.974 52.8281 212.869 42.9635 225.622 34.8156C223.544 32.921 220.216 31.1113 221.309 27.6117C222.734 23.0513 235.142 26.5563 236.812 24.7984C237.025 24.2288 236.938 23.4172 236.914 22.7862C235.705 22.6746 233.139 22.7417 231.852 22.7431L222.335 22.759L218.699 22.7756C217.39 22.7787 215.178 22.7163 213.971 22.9034C212.795 23.793 213.839 29.2145 213.429 30.8108C213.157 31.8681 210.549 31.4491 209.647 31.4651C206.828 31.4844 204.235 31.3307 201.403 31.5879C195.819 32.0688 193.045 38.5737 195.753 43.4176C197.089 45.8057 202.131 46.4368 204.447 45.4437C204.74 45.3183 204.386 42.6161 204.614 41.7992C205.046 40.2531 205.461 39.481 207.262 39.926C209.517 40.7276 213.203 43.1694 214.645 45.1041C216.063 47.0063 211.187 48.9198 210.859 50.1916C210.984 52.151 215.53 57.2317 216.691 59.2637C215.715 58.7996 214.877 57.9508 214.033 57.5191C210.202 55.5616 209.352 53.0958 206.739 49.7832C202.291 49.5402 197.253 46.0202 193.602 43.5995C189.589 40.9387 186.324 35.6322 189.618 30.9732C192.851 26.3998 198.581 27.5842 203.323 27.4546C204.045 27.4349 206.478 27.7051 207.095 27.0321C207.474 26.3025 207.469 23.9967 207.271 23.144C206.525 22.579 202.431 22.7735 201.379 22.7758L192.177 22.799L177.451 22.8287C176.318 22.8287 168.556 22.6509 168.059 23.0778C167.447 23.969 167.678 26.2093 167.698 27.3776C168.009 27.2974 168.324 27.2302 168.641 27.1765C173.027 26.47 176.319 29.4179 179.713 31.6681C186.539 36.1924 185.155 43.9983 181.002 49.8024C180.27 50.7862 177.405 54.5056 176.087 53.3607C174.511 51.9934 172.41 50.7977 170.83 49.5124C171.727 48.6656 172.653 47.9592 173.534 47.0473C177.337 43.1117 179.385 38.2161 177.777 32.7039C177.078 31.0957 176.473 30.7498 174.785 30.9957C171.561 31.3819 168.584 34.9671 167.884 38.0946C167.526 39.7004 167.642 42.6442 167.637 44.4239L167.649 53.9693C167.659 54.9263 167.881 56.5783 167.386 57.2366C166.773 57.3142 162.233 53.9696 161.445 53.422L161.486 43.5669C160.643 43.7115 159.882 43.8594 159 43.8974C155.382 44.0536 150.211 40.2878 147.539 37.9018C144.649 35.3228 144.743 32.133 144.76 28.5957C144.774 26.7198 144.77 24.8438 144.747 22.9681C143.949 22.9153 139.291 22.7041 139.101 23.2183C138.67 24.3886 138.842 28.7713 138.842 30.1079L138.855 47.2348C138.855 48.7125 139.05 56.2602 138.549 57.2349C137.756 57.327 133.45 54.026 132.575 53.3998C132.899 43.8555 132.332 34.0603 132.626 24.4888C132.638 24.0793 132.533 23.5567 132.375 23.1798C131.79 22.7069 126.055 22.7355 125.995 23.3659C125.797 25.4307 125.874 27.8644 125.877 29.9555L125.864 48.1859L125.863 53.7309C125.868 54.6945 126.125 56.543 125.539 57.241C124.836 57.2448 120.558 54.0848 119.598 53.424C119.598 51.4293 119.607 49.4346 119.627 47.44C114.328 49.1867 110.14 45.6154 106.112 42.5542C99.5173 37.5422 103.019 26.7443 110.799 25.9547C114.342 25.5951 117.184 28.3065 119.622 30.5146C119.641 28.3899 119.716 24.9677 119.567 22.9372C117.194 22.6975 114.643 22.8667 112.251 22.8639C108.159 22.859 104.057 22.7956 99.9657 22.8683C99.5781 22.8752 98.2579 22.843 98.0628 23.1544C96.9868 24.8706 98.465 56.1158 97.3791 57.2762C96.578 57.1995 92.498 54.1606 91.4861 53.4641C91.8256 47.1162 91.4239 40.3148 91.5095 33.9356C91.5241 32.8427 83.7464 33.079 83.1488 33.9622C83.1228 34.2928 83.2321 34.8366 83.429 35.1253C86.3744 39.4463 88.9959 47.4201 82.7765 50.1955C78.9937 51.565 75.9284 48.7626 73.0246 47.031C67.1811 43.5466 64.8507 37.9327 62.8261 31.6022C62.5662 30.7894 61.6241 28.5255 61.9746 27.7816C62.7974 27.818 66.9152 31.2856 68.0744 32.0658C68.1909 34.5177 71.0608 43.2181 72.7504 45.3265C73.3759 46.1521 73.9767 46.628 75.018 46.7185C78.3611 47.009 80.4418 44.3494 80.7684 41.1398C81.193 36.966 79.5724 33.4606 76.9894 30.3791C76.7344 30.0748 76.7307 29.9409 76.7717 29.5809C77.6283 28.7519 89.3338 29.8761 91.1009 29.1212C91.2986 28.9555 91.516 28.7191 91.5141 28.4565C91.5069 27.4468 91.7995 23.7608 91.2732 23.0512C90.0147 22.7275 83.1902 22.8292 81.3607 22.8261L61.7097 22.7834C60.7675 22.1561 57.5642 20.2489 57.291 19.4732C57.6095 19.2058 57.8882 19.1543 58.3233 19.1521C62.7918 19.13 67.2887 19.1279 71.7544 19.1083L103.164 19.0776L192.177 18.8588C195.513 18.8535 209.447 19.0258 210.006 18.6858C210.016 18.6101 210.025 18.5208 210.037 18.4179C205.779 13.8692 200.907 9.81407 196.677 5.24457C194.739 3.15275 195.069 0.761536 197.995 0.00537198ZM158.729 38.0183C162.387 34.2009 161.373 32.285 161.499 27.3798C161.525 26.3973 161.604 23.7731 161.156 23.0156C160.308 22.6989 153.093 22.8751 151.635 22.8545C150.861 23.6461 151.045 23.6192 151.041 24.9447L151.036 32.8048C151.036 35.4337 150.279 40.3778 153.785 40.1966C155.669 40.0991 157.403 39.4084 158.729 38.0183ZM245.526 18.8093C246.577 18.8183 250.702 18.9336 251.491 18.7226L251.639 18.4917C251.308 17.6976 249.31 16.7669 248.582 16.145C249.135 13.349 248.51 10.9457 247.13 8.53322C246.177 6.87175 244.821 6.87932 243.138 6.94586C240.981 7.27708 239.334 8.00793 237.973 9.88512C236.891 11.3785 236.428 13.253 236.686 15.0973C236.935 16.8238 237.688 17.9413 239.111 18.8353L245.526 18.8093ZM112.377 44.1119C114.762 43.7202 116.485 42.5534 117.908 40.52C119.417 38.3228 120.016 35.5976 119.572 32.9455C119.399 31.8752 119.021 31.1555 118.395 30.2793C117.724 30.1293 116.745 29.8595 116.089 29.9151C113.765 30.3001 111.989 31.4762 110.545 33.499C108.881 35.832 107.062 41.3579 109.72 43.5999C110.455 44.22 111.462 44.1273 112.377 44.1119Z" fill="#0E1F3B"/>
<defs>
<clipPath id="clip0_142_46133">
<rect width="57.2908" height="58.9034" fill="white" transform="translate(0 5.80908)"/>
</clipPath>
</defs>
</svg>
